<svg xmlns="http://www.w3.org/2000/svg" xmlns:xlink="http://www.w3.org/1999/xlink" width="1920" height="3119" viewBox="0 0 1920 3119"><defs><style>.a{clip-path:url(#j);}.b{fill:url(#a);}.c{fill:url(#b);}.d{fill:url(#c);}.e{fill:url(#e);}.f{fill:url(#g);}.g{fill:url(#h);}.h{fill:#eee6ff;}</style><radialGradient id="a" cx="0.5" cy="0.5" r="0.5" gradientTransform="translate(0 0.024) scale(1 0.952)" gradientUnits="objectBoundingBox"><stop offset="0" stop-color="#f17e5f"/><stop offset="1" stop-color="#eee6ff" stop-opacity="0.129"/></radialGradient><radialGradient id="b" cx="0.5" cy="0.5" r="0.5" gradientTransform="translate(0 0.024) scale(1 0.952)" gradientUnits="objectBoundingBox"><stop offset="0" stop-color="#80f"/><stop offset="1" stop-color="#eee6ff" stop-opacity="0"/></radialGradient><radialGradient id="c" cx="0.5" cy="0.5" r="0.5" gradientUnits="objectBoundingBox"><stop offset="0" stop-color="#7c73e6"/><stop offset="1" stop-color="#eee6ff" stop-opacity="0.239"/></radialGradient><radialGradient id="e" cx="0.5" cy="0.5" r="0.5" gradientUnits="objectBoundingBox"><stop offset="0" stop-color="#f41515"/><stop offset="1" stop-color="#eee6ff" stop-opacity="0"/></radialGradient><radialGradient id="g" cx="0.5" cy="0.5" r="0.396" gradientTransform="translate(0 0.008) scale(1 0.985)" gradientUnits="objectBoundingBox"><stop offset="0" stop-color="#e673c3"/><stop offset="1" stop-color="#eee6ff" stop-opacity="0.059"/></radialGradient><radialGradient id="h" cx="0.5" cy="0.5" r="0.396" gradientTransform="translate(0 0.008) scale(1 0.985)" gradientUnits="objectBoundingBox"><stop offset="0" stop-color="#e673c3"/><stop offset="1" stop-color="#eee6ff" stop-opacity="0"/></radialGradient><clipPath id="j"><rect width="1920" height="3119"/></clipPath></defs><g id="i" class="a"><rect class="h" width="1920" height="3119"/><path class="b" d="M772.253,0c426.5,0,772.253,376.226,772.253,840.323,0,253.86-103.45,481.428-267.12,635.643-135.29,127.474-311.926,204.681-505.133,204.681C345.749,1680.647,0,1304.421,0,840.323S345.749,0,772.253,0Z" transform="matrix(1, -0.017, 0.017, 1, -648.064, -625.144)"/><path class="c" d="M772.253,0c426.5,0,772.253,376.226,772.253,840.323,0,253.86-103.45,481.428-267.12,635.643-135.29,127.474-311.926,204.681-505.133,204.681C345.749,1680.647,0,1304.421,0,840.323S345.749,0,772.253,0Z" transform="matrix(1, -0.017, 0.017, 1, 1125.936, 1255.856)"/><ellipse class="d" cx="1290" cy="1082.5" rx="1290" ry="1082.5" transform="translate(734 -1259)"/><ellipse class="d" cx="1290" cy="1082.5" rx="1290" ry="1082.5" transform="translate(-1454 1229)"/><ellipse class="e" cx="764.5" cy="862" rx="764.5" ry="862" transform="translate(547 418)"/><ellipse class="e" cx="764.5" cy="862" rx="764.5" ry="862" transform="translate(1126 2081)"/><ellipse class="f" cx="494" cy="483.5" rx="494" ry="483.5" transform="translate(-254 572)"/><ellipse class="g" cx="494" cy="483.5" rx="494" ry="483.5" transform="translate(25 2600)"/></g></svg>